# xmcd
#
# Track frame offsets:
#	183
#	12403
#	23730
#	37170
#	48735
#	62198
#	75980
#	86928
#	96955
#	111440
#	123063
#	136388
#	149783
#	161165
#	172735
#	183093
#	196295
#	208380
#
# Disc length: 2945 seconds
#
# Revision: 3
# Processed by: cddbd v1.5.2PL0 Copyright (c) Steve Scherf et al.
# Submitted via: audiograbber 1.83.01
#
DISCID=070b7f12
DTITLE=John Lee Hooker - The Very Best Of
DYEAR=1993
DGENRE=Blues
TTITLE0=I'm In The Mood
TTITLE1=Boom Boom
TTITLE2=Trouble Blues
TTITLE3=Little Wheel
TTITLE4=Love Blues
TTITLE5=Louise
TTITLE6=This Is Hip
TTITLE7=Dimples
TTITLE8=Sugar Mama
TTITLE9=Solid Sender
TTITLE10=Grounding Hog Blues
TTITLE11=Every Night
TTITLE12=Will The Circle Be Unbroken
TTITLE13=Boogie Chillun'
TTITLE14=Maudie
TTITLE15=Baby Lee
TTITLE16=Crawlin' Kingsnake
TTITLE17=Hobo Blues
EXTD=
EXTT0=
EXTT1=
EXTT2=
EXTT3=
EXTT4=
EXTT5=
EXTT6=
EXTT7=
EXTT8=
EXTT9=
EXTT10=
EXTT11=
EXTT12=
EXTT13=
EXTT14=
EXTT15=
EXTT16=
EXTT17=
PLAYORDER=
